# xmcd
#
# Track frame offsets:
#	150
#	13935
#	26822
#	40030
#	53822
#	66340
#	78255
#	91472
#	105235
#	119630
#	130347
#	142867
#	156080
#	168142
#
# Disc length: 2375 seconds
#
# Revision: 2
# Processed by: cddbd v1.5.2PL0 Copyright (c) Steve Scherf et al.
# Submitted via: EasyCDDAExtractor 16.0.1.1
#
DISCID=b209450e
DTITLE=Albert King+Otis Rush - So Many Roads;Charly Blues Masterworks Vol  2
DYEAR=1900
DGENRE=Blues
TTITLE0=Albert King - Bad Luck (Blues)
TTITLE1=Albert King - (Be On Your) Merry Way
TTITLE2=Albert King - Murder
TTITLE3=Albert King - Searching For a Woman
TTITLE4=Albert King - California Blues
TTITLE5=Albert King - Wild Women
TTITLE6=Albert King - Won't Be Hangin' Around No More
TTITLE7=Albert King - Howlin' For My Darling
TTITLE8=Otis Rush - So Many Roads, So Many Trains
TTITLE9=Otis Rush - I'm Satisfied
TTITLE10=Otis Rush - So Close
TTITLE11=Otis Rush - All Your Love
TTITLE12=Otis Rush - You Know My Love
TTITLE13=Otis Rush - I Can't Stop Baby
EXTD=
EXTT0=
EXTT1=
EXTT2=
EXTT3=
EXTT4=
EXTT5=
EXTT6=
EXTT7=
EXTT8=
EXTT9=
EXTT10=
EXTT11=
EXTT12=
EXTT13=
PLAYORDER=
